<?xml version="1.0" encoding="UTF-8" standalone="no"?>
<svg
   xmlns:dc="http://purl.org/dc/elements/1.1/"
   xmlns:cc="http://creativecommons.org/ns#"
   xmlns:rdf="http://www.w3.org/1999/02/22-rdf-syntax-ns#"
   xmlns:svg="http://www.w3.org/2000/svg"
   xmlns="http://www.w3.org/2000/svg"
   xmlns:sodipodi="http://sodipodi.sourceforge.net/DTD/sodipodi-0.dtd"
   xmlns:inkscape="http://www.inkscape.org/namespaces/inkscape"
   width="21.166666mm"
   height="12.7mm"
   viewBox="0 0 21.166666 12.7"
   version="1.1"
   id="svg8"
   inkscape:version="1.0 (4035a4fb49, 2020-05-01)"
   sodipodi:docname="icons.svg">
  <defs
     id="defs2" />
  <sodipodi:namedview
     fit-margin-bottom="0"
     fit-margin-right="0"
     fit-margin-left="0"
     fit-margin-top="0"
     id="base"
     pagecolor="#ffffff"
     bordercolor="#666666"
     borderopacity="1.0"
     inkscape:pageopacity="0.0"
     inkscape:pageshadow="2"
     inkscape:zoom="15.999999"
     inkscape:cx="56.960093"
     inkscape:cy="26.132827"
     inkscape:document-units="mm"
     inkscape:current-layer="layer1"
     inkscape:document-rotation="0"
     showgrid="false"
     inkscape:window-width="2560"
     inkscape:window-height="1392"
     inkscape:window-x="0"
     inkscape:window-y="24"
     inkscape:window-maximized="1"
     inkscape:snap-object-midpoints="true"
     showguides="true"
     inkscape:guide-bbox="true"
     inkscape:snap-bbox="true"
     inkscape:bbox-paths="true"
     showborder="true" />
  <metadata
     id="metadata5">
    <rdf:RDF>
      <cc:Work
         rdf:about="">
        <dc:format>image/svg+xml</dc:format>
        <dc:type
           rdf:resource="http://purl.org/dc/dcmitype/StillImage" />
        <dc:title></dc:title>
      </cc:Work>
    </rdf:RDF>
  </metadata>
  <g
     transform="translate(-55.84827,-98.289085)"
     inkscape:label="Layer 1"
     inkscape:groupmode="layer"
     id="layer1">
    <g
       id="g943">
      <rect
         ry="1.3821495"
         y="98.289085"
         x="55.84827"
         height="12.7"
         width="12.7"
         id="rect833"
         style="fill:#00b3c4;fill-opacity:1;stroke:none;stroke-width:0.352691;stroke-linecap:round;stroke-linejoin:round;stroke-miterlimit:10" />
      <g
         id="g922">
        <text
           xml:space="preserve"
           style="font-size:9.73305px;line-height:1.25;font-family:Helvetica;-inkscape-font-specification:Helvetica;letter-spacing:0px;word-spacing:0px;fill:#ffffff;fill-opacity:1;stroke-width:0.264583"
           x="61.035172"
           y="108.13326"
           id="text879"><tspan
             sodipodi:role="line"
             id="tspan877"
             x="61.035172"
             y="108.13326"
             style="font-style:normal;font-variant:normal;font-weight:normal;font-stretch:normal;font-family:'Techna Sans';-inkscape-font-specification:'Techna Sans';fill:#ffffff;fill-opacity:1;stroke-width:0.264583">i</tspan></text>
        <g
           aria-label="f"
           id="text912"
           style="font-size:7.29979px;line-height:1.25;font-family:Helvetica;-inkscape-font-specification:Helvetica;letter-spacing:0px;word-spacing:0px;fill:#ffffff;fill-opacity:1;stroke-width:0.264583">
          <path
             d="m 64.281247,104.17678 v 0.28469 h -0.474486 l -0.131396,0.75918 h 0.605882 v 2.91261 h 0.60228 l 0.175274,-0.15697 0.164119,-0.21093 v -2.54471 h 0.934373 v -0.75918 H 65.22292 v -0.27739 c 0,-0.35769 0.197094,-0.50369 0.562084,-0.50369 0.182495,0 0.32849,0.0292 0.445287,0.073 l -0.145996,-0.78838 c -0.116796,-0.073 -0.32849,-0.1095 -0.547484,-0.1095 -0.503686,0 -1.255564,0.2628 -1.255564,1.32127 z"
             style="font-style:normal;font-variant:normal;font-weight:normal;font-stretch:normal;font-family:'Techna Sans';-inkscape-font-specification:'Techna Sans';fill:#ffffff;fill-opacity:1;stroke-width:0.264583"
             id="path914"
             sodipodi:nodetypes="sccccccccccccssccss" />
        </g>
        <path
           id="path895"
           style="fill:none;fill-opacity:1;stroke:#000000;stroke-width:0.529167;stroke-linecap:butt;stroke-linejoin:miter;stroke-miterlimit:4;stroke-dasharray:none;stroke-opacity:1"
           d="m 65.316379,101.52096 -6.236222,6.23623 m 7.351445,-3.11811 a 4.2333331,4.2333331 0 0 1 -4.233333,4.23333 4.2333331,4.2333331 0 0 1 -4.233333,-4.23333 4.2333331,4.2333331 0 0 1 4.233333,-4.23334 4.2333331,4.2333331 0 0 1 4.233333,4.23334" />
      </g>
    </g>
    <g
       transform="translate(-5.7199607)"
       id="g952">
      <circle
         r="4.2333331"
         cy="106.75575"
         cx="78.501564"
         id="path837"
         style="fill:#00b3c4;fill-opacity:1;stroke:none;stroke-width:0.35269;stroke-linecap:round;stroke-linejoin:round;stroke-miterlimit:10" />
      <g
         style="stroke-width:1.3617"
         transform="matrix(0.73437499,0,0,0.734375,32.824711,29.911432)"
         id="g934">
        <text
           id="text926"
           y="108.13326"
           x="61.035172"
           style="font-size:9.73305px;line-height:1.25;font-family:Helvetica;-inkscape-font-specification:Helvetica;letter-spacing:0px;word-spacing:0px;fill:#ffffff;fill-opacity:1;stroke-width:0.360283"
           xml:space="preserve"><tspan
             style="font-style:normal;font-variant:normal;font-weight:normal;font-stretch:normal;font-family:'Techna Sans';-inkscape-font-specification:'Techna Sans';fill:#ffffff;fill-opacity:1;stroke-width:0.360283"
             y="108.13326"
             x="61.035172"
             id="tspan924"
             sodipodi:role="line">i</tspan></text>
        <g
           style="font-size:7.29979px;line-height:1.25;font-family:Helvetica;-inkscape-font-specification:Helvetica;letter-spacing:0px;word-spacing:0px;fill:#ffffff;fill-opacity:1;stroke-width:0.360283"
           id="g930"
           aria-label="f">
          <path
             sodipodi:nodetypes="sccccccccccccssccss"
             id="path928"
             style="font-style:normal;font-variant:normal;font-weight:normal;font-stretch:normal;font-family:'Techna Sans';-inkscape-font-specification:'Techna Sans';fill:#ffffff;fill-opacity:1;stroke-width:0.360283"
             d="m 64.281247,104.17678 v 0.28469 h -0.474486 l -0.131396,0.75918 h 0.605882 v 2.91261 h 0.60228 l 0.175274,-0.15697 0.164119,-0.21093 v -2.54471 h 0.934373 v -0.75918 H 65.22292 v -0.27739 c 0,-0.35769 0.197094,-0.50369 0.562084,-0.50369 0.182495,0 0.32849,0.0292 0.445287,0.073 l -0.145996,-0.78838 c -0.116796,-0.073 -0.32849,-0.1095 -0.547484,-0.1095 -0.503686,0 -1.255564,0.2628 -1.255564,1.32127 z" />
        </g>
        <path
           d="m 65.316379,101.52096 -6.236222,6.23623 m 7.351445,-3.11811 a 4.2333331,4.2333331 0 0 1 -4.233333,4.23333 4.2333331,4.2333331 0 0 1 -4.233333,-4.23333 4.2333331,4.2333331 0 0 1 4.233333,-4.23334 4.2333331,4.2333331 0 0 1 4.233333,4.23334"
           style="fill:none;fill-opacity:1;stroke:#000000;stroke-width:0.720568;stroke-linecap:butt;stroke-linejoin:miter;stroke-miterlimit:4;stroke-dasharray:none;stroke-opacity:1"
           id="path932" />
      </g>
    </g>
  </g>
</svg>
